<?xml version="1.0" encoding="iso-8859-1"?>
<!-- Generator: Adobe Illustrator 18.0.0, SVG Export Plug-In . SVG Version: 6.00 Build 0)  -->
<!DOCTYPE svg PUBLIC "-//W3C//DTD SVG 1.1//EN" "http://www.w3.org/Graphics/SVG/1.1/DTD/svg11.dtd">
<svg version="1.1" id="Capa_1" xmlns="http://www.w3.org/2000/svg" xmlns:xlink="http://www.w3.org/1999/xlink" x="0px" y="0px"
	 viewBox="0 0 135.001 135.001" style="enable-background:new 0 0 135.001 135.001;" xml:space="preserve">
<g>
	<circle style="fill:#FF6F00;" cx="67.501" cy="67.501" r="67.5"/>
	<g>
		<g>
			<rect x="30.793" y="45.101" style="fill-rule:evenodd;clip-rule:evenodd;fill:#FCCF4E;" width="73.276" height="43.998"/>
			<rect x="35.581" y="50.417" style="fill-rule:evenodd;clip-rule:evenodd;fill:#FCAC39;" width="63.48" height="33.368"/>
		</g>
		<g>
			<g>
				<rect x="30.793" y="45.101" style="fill-rule:evenodd;clip-rule:evenodd;fill:#FBC338;" width="36.667" height="43.998"/>
			</g>
			<g>
				<rect x="35.581" y="50.417" style="fill-rule:evenodd;clip-rule:evenodd;fill:#FB9A25;" width="31.879" height="33.368"/>
			</g>
		</g>
		<circle style="fill-rule:evenodd;clip-rule:evenodd;fill:#FCCF4E;" cx="67.321" cy="67.1" r="11.088"/>
		<path style="fill-rule:evenodd;clip-rule:evenodd;fill:#FCDA4E;" d="M67.397,56.015v22.169C73.486,78.143,78.41,73.198,78.41,67.1
			C78.41,61.001,73.486,56.057,67.397,56.015z"/>
		<g>
			<g>
				<path style="fill:#FF6F00;" d="M72.461,69.801c0,1.022-0.369,1.843-1.108,2.463c-0.739,0.621-1.773,0.992-3.104,1.114v1.977
					h-1.321v-1.938c-1.569-0.032-2.944-0.309-4.127-0.829v-2.545c0.559,0.276,1.232,0.521,2.02,0.732
					c0.787,0.212,1.49,0.337,2.107,0.376v-2.989l-0.646-0.25c-1.273-0.501-2.174-1.046-2.705-1.634
					c-0.53-0.588-0.795-1.316-0.795-2.184c0-0.932,0.365-1.698,1.094-2.299c0.729-0.601,1.747-0.966,3.052-1.094v-1.476h1.321v1.437
					c1.472,0.064,2.803,0.36,3.991,0.887l-0.906,2.256c-1.003-0.411-2.031-0.662-3.085-0.752v2.844
					c1.253,0.482,2.146,0.9,2.676,1.253s0.919,0.742,1.166,1.167C72.338,68.74,72.461,69.235,72.461,69.801z M65.684,64.093
					c0,0.283,0.098,0.516,0.294,0.699c0.196,0.183,0.512,0.371,0.95,0.564V63.09C66.098,63.212,65.684,63.547,65.684,64.093z
					 M69.56,69.945c0-0.27-0.109-0.498-0.328-0.685c-0.219-0.186-0.546-0.379-0.983-0.579v2.401
					C69.123,70.936,69.56,70.556,69.56,69.945z"/>
			</g>
		</g>
	</g>
</g>
<g>
</g>
<g>
</g>
<g>
</g>
<g>
</g>
<g>
</g>
<g>
</g>
<g>
</g>
<g>
</g>
<g>
</g>
<g>
</g>
<g>
</g>
<g>
</g>
<g>
</g>
<g>
</g>
<g>
</g>
</svg>
